<svg xmlns="http://www.w3.org/2000/svg" width="20" height="20" fill="none" ><g clip-path="url(#A)" fill="#404040"><path d="M15.833 7.02V5.833c0-1.547-.615-3.031-1.709-4.125A5.83 5.83 0 0 0 10 0C8.453 0 6.969.615 5.875 1.709a5.83 5.83 0 0 0-1.708 4.124V7.02a4.17 4.17 0 0 0-1.818 1.534c-.444.677-.681 1.469-.682 2.279v5A4.17 4.17 0 0 0 5.833 20h8.333a4.17 4.17 0 0 0 4.167-4.167v-5c-.001-.81-.238-1.602-.682-2.279a4.17 4.17 0 0 0-1.818-1.534zm-10-1.187c0-1.105.439-2.165 1.22-2.946A4.17 4.17 0 0 1 10 1.667c1.105 0 2.165.439 2.946 1.22s1.22 1.841 1.22 2.946v.833H5.833v-.833zm10.833 10a2.5 2.5 0 0 1-2.5 2.5H5.833a2.5 2.5 0 0 1-2.5-2.5v-5a2.5 2.5 0 0 1 2.5-2.5h8.333a2.5 2.5 0 0 1 2.5 2.5v5zM10 11.667c-.221 0-.433.088-.589.244s-.244.368-.244.589v1.667c0 .221.088.433.244.589S9.779 15 10 15s.433-.088.589-.244.244-.368.244-.589V12.5c0-.221-.088-.433-.244-.589s-.368-.244-.589-.244z"/></g><defs><clipPath id="A"><path fill="#fff" d="M0 0h20v20H0z"/></clipPath></defs></svg>