<svg xmlns="http://www.w3.org/2000/svg" width="32" height="32" fill="none"><path d="M31.093 5.467A3.98 3.98 0 0 0 28 4H9.653L9.6 3.533C9.36 1.52 7.653 0 5.627 0H4a1.34 1.34 0 0 0-1.333 1.333A1.34 1.34 0 0 0 4 2.667h1.627c.68 0 1.24.507 1.32 1.173l1.84 15.6c.4 3.36 3.24 5.893 6.627 5.893h11.253A1.34 1.34 0 0 0 28 24a1.34 1.34 0 0 0-1.333-1.333H15.413c-1.72 0-3.213-1.093-3.773-2.667h12.573a6.67 6.67 0 0 0 6.533-5.36l1.173-5.853c.24-1.173-.067-2.387-.827-3.32zm-1.787 2.8l-1.173 5.853a4.01 4.01 0 0 1-3.92 3.213H11.227L9.973 6.667H28c.4 0 .773.173 1.027.493a1.33 1.33 0 0 1 .28 1.107zm-14.64 21.067C14.667 30.8 13.467 32 12 32s-2.667-1.2-2.667-2.667 1.2-2.667 2.667-2.667 2.667 1.2 2.667 2.667zm12 0C26.667 30.8 25.467 32 24 32s-2.667-1.2-2.667-2.667 1.2-2.667 2.667-2.667 2.667 1.2 2.667 2.667zM0 8a1.34 1.34 0 0 1 1.333-1.333h2.053A1.34 1.34 0 0 1 4.72 8a1.34 1.34 0 0 1-1.333 1.333H1.333A1.34 1.34 0 0 1 0 8zm0 5.333A1.34 1.34 0 0 1 1.333 12H4a1.34 1.34 0 0 1 1.333 1.333A1.34 1.34 0 0 1 4 14.667H1.333A1.34 1.34 0 0 1 0 13.333zm6.667 5.333A1.34 1.34 0 0 1 5.333 20h-4A1.34 1.34 0 0 1 0 18.667a1.34 1.34 0 0 1 1.333-1.333h4a1.34 1.34 0 0 1 1.333 1.333z" fill="#e5aa5c"/></svg>